<svg width="24" height="24" viewBox="0 0 24 24" fill="none" xmlns="http://www.w3.org/2000/svg">
    <path
        d="M18.7396 7.60473L17.8503 8.06208L17.8518 8.06503L18.7396 7.60473ZM20.5 11L21.3893 10.5426L21.3878 10.5397L20.5 11ZM3.5 11L2.61223 10.5397L2.61071 10.5427L3.5 11ZM5.26042 7.60473L6.14819 8.06503L6.14971 8.06208L5.26042 7.60473ZM4.63803 18.673L5.09202 17.782H5.09202L4.63803 18.673ZM3.32698 17.362L2.43597 17.816H2.43597L3.32698 17.362ZM20.673 17.362L21.564 17.816V17.816L20.673 17.362ZM19.362 18.673L18.908 17.782H18.908L19.362 18.673ZM3.16432 11.747L2.21909 11.4206L2.21909 11.4206L3.16432 11.747ZM3.03041 12.3002L4.02027 12.4422L3.03041 12.3002ZM20.8357 11.747L19.8905 12.0734V12.0734L20.8357 11.747ZM20.9696 12.3002L21.9595 12.1581L21.9595 12.1581L20.9696 12.3002ZM16.5379 5.16065L16.2151 6.1071V6.1071L16.5379 5.16065ZM17.6514 5.84012L18.3454 5.12016V5.12016L17.6514 5.84012ZM7.46209 5.16065L7.13924 4.21419L7.13924 4.21419L7.46209 5.16065ZM6.34859 5.84012L5.65457 5.12016L5.65457 5.12016L6.34859 5.84012ZM15 14C14.4477 14 14 14.4477 14 15C14 15.5523 14.4477 16 15 16V14ZM17 16C17.5523 16 18 15.5523 18 15C18 14.4477 17.5523 14 17 14V16ZM9.52901 6H14.471V4H9.52901V6ZM17.8518 8.06503L19.6122 11.4603L21.3878 10.5397L19.6273 7.14443L17.8518 8.06503ZM4.38776 11.4603L6.14819 8.06503L4.37266 7.14443L2.61224 10.5397L4.38776 11.4603ZM20 13.162V14.2H22V13.162H20ZM16.2 18H7.8V20H16.2V18ZM4 14.2V13.162H2V14.2H4ZM7.8 18C6.94342 18 6.36113 17.9992 5.91104 17.9624C5.47262 17.9266 5.24842 17.8617 5.09202 17.782L4.18404 19.564C4.66937 19.8113 5.18608 19.9099 5.74817 19.9558C6.2986 20.0008 6.97642 20 7.8 20V18ZM2 14.2C2 15.0236 1.99922 15.7014 2.04419 16.2518C2.09012 16.8139 2.18868 17.3306 2.43597 17.816L4.21799 16.908C4.1383 16.7516 4.07337 16.5274 4.03755 16.089C4.00078 15.6389 4 15.0566 4 14.2H2ZM5.09202 17.782C4.7157 17.5903 4.40973 17.2843 4.21799 16.908L2.43597 17.816C2.81947 18.5686 3.43139 19.1805 4.18404 19.564L5.09202 17.782ZM20 14.2C20 15.0566 19.9992 15.6389 19.9624 16.089C19.9266 16.5274 19.8617 16.7516 19.782 16.908L21.564 17.816C21.8113 17.3306 21.9099 16.8139 21.9558 16.2518C22.0008 15.7014 22 15.0236 22 14.2H20ZM16.2 20C17.0236 20 17.7014 20.0008 18.2518 19.9558C18.8139 19.9099 19.3306 19.8113 19.816 19.564L18.908 17.782C18.7516 17.8617 18.5274 17.9266 18.089 17.9624C17.6389 17.9992 17.0566 18 16.2 18V20ZM19.782 16.908C19.5903 17.2843 19.2843 17.5903 18.908 17.782L19.816 19.564C20.5686 19.1805 21.1805 18.5686 21.564 17.816L19.782 16.908ZM2.61071 10.5427C2.40094 10.9505 2.31034 11.1563 2.21909 11.4206L4.10955 12.0734C4.15808 11.9328 4.20278 11.82 4.38929 11.4573L2.61071 10.5427ZM4 13.162C4 12.7013 4.00232 12.5673 4.02027 12.4422L2.04055 12.1581C1.99768 12.4569 2 12.7561 2 13.162H4ZM2.21909 11.4206C2.13634 11.6602 2.07655 11.9072 2.04055 12.1581L4.02027 12.4422C4.03828 12.3167 4.06817 12.1932 4.10955 12.0734L2.21909 11.4206ZM19.6107 11.4573C19.7972 11.82 19.8419 11.9328 19.8905 12.0734L21.7809 11.4206C21.6897 11.1563 21.5991 10.9505 21.3893 10.5427L19.6107 11.4573ZM22 13.162C22 12.7561 22.0023 12.4569 21.9595 12.1581L19.9797 12.4422C19.9977 12.5673 20 12.7013 20 13.162H22ZM19.8905 12.0734C19.9318 12.1932 19.9617 12.3167 19.9797 12.4422L21.9595 12.1581C21.9234 11.9072 21.8637 11.6602 21.7809 11.4206L19.8905 12.0734ZM14.471 6C15.6065 6 15.9385 6.01277 16.2151 6.1071L16.8608 4.21419C16.1954 3.98723 15.4634 4 14.471 4V6ZM19.6289 7.14738C19.175 6.2648 18.8516 5.60805 18.3454 5.12016L16.9574 6.56008C17.1678 6.76285 17.331 7.05229 17.8503 8.06208L19.6289 7.14738ZM16.2151 6.1071C16.4927 6.20182 16.7462 6.35646 16.9574 6.56008L18.3454 5.12016C17.923 4.71293 17.4161 4.40363 16.8608 4.21419L16.2151 6.1071ZM9.52901 4C8.53655 4 7.80461 3.98723 7.13924 4.21419L7.78493 6.1071C8.06147 6.01277 8.3935 6 9.52901 6V4ZM6.14971 8.06208C6.66903 7.05229 6.83225 6.76285 7.0426 6.56008L5.65457 5.12016C5.14843 5.60805 4.82503 6.2648 4.37114 7.14738L6.14971 8.06208ZM7.13924 4.21419C6.58389 4.40363 6.07702 4.71293 5.65457 5.12016L7.0426 6.56008C7.25383 6.35646 7.50726 6.20182 7.78494 6.1071L7.13924 4.21419ZM15 16H17V14H15V16ZM20.5 10H3.5V12H20.5V10Z" />
</svg>