<?xml version="1.0" encoding="UTF-8" standalone="no"?>
<!DOCTYPE svg PUBLIC "-//W3C//DTD SVG 1.1//EN" "http://www.w3.org/Graphics/SVG/1.1/DTD/svg11.dtd">
<svg width="100%" height="100%" viewBox="0 0 739 739" version="1.1" xmlns="http://www.w3.org/2000/svg" xmlns:xlink="http://www.w3.org/1999/xlink" xml:space="preserve" xmlns:serif="http://www.serif.com/" style="fill-rule:evenodd;clip-rule:evenodd;stroke-linejoin:round;stroke-miterlimit:2;">
    <g transform="matrix(0.986683,0,0,0.986683,-136.081,-136.081)">
        <path d="M535.939,863.161C515.931,843.153 203.505,529.713 183.497,509.705C169.086,495.294 161.469,476.645 160.649,457.754C160.046,443.845 138.078,230.102 137.923,217.139C137.681,196.785 145.323,176.356 160.839,160.839C177.115,144.564 198.795,136.951 220.125,138.016C232.439,138.63 447.036,159.52 461.817,160.931C479.3,162.6 496.329,170.12 509.705,183.497C523.113,196.904 849.753,522.531 863.161,535.939C893.716,566.494 893.716,616.108 863.161,646.663L646.663,863.161C616.108,893.716 566.494,893.716 535.939,863.161ZM321.355,223.613C296.045,198.303 254.947,198.303 229.636,223.613C204.326,248.924 204.326,290.022 229.636,315.332C254.947,340.643 296.045,340.643 321.355,315.332C346.666,290.022 346.666,248.924 321.355,223.613ZM362.109,606.786C409.476,654.152 424.103,598.401 454.027,606.786C468.584,610.865 453.72,642.505 443.028,673.551C425.086,725.641 484.094,757.817 516.601,720.743C545.603,687.667 503.579,655.692 520.581,632.527C537.795,609.074 563.542,633.319 565.542,665.527C568.921,719.955 535.825,735.585 543.999,774.591C553.59,820.348 624.181,827.565 638,774.591C647.736,737.269 603.102,705.31 628.352,644.476C636.209,625.545 662.786,619.154 669.759,644.476C673.976,659.791 660.264,670.152 666.759,693.55C674.41,721.114 725.088,732.96 740.374,693.55C746.873,676.793 734.853,651.273 731.597,640.406C714.283,582.611 826.807,582.426 762.374,517.789C703.034,458.263 493.6,249.017 493.6,249.017C479.164,234.58 457.464,234.58 443.028,249.017L249.017,443.028C234.58,457.464 234.58,479.164 249.017,493.6C249.017,493.6 340.149,584.825 362.109,606.786Z" style="fill:white;"/>
    </g>
    <g transform="matrix(0.986683,0,0,0.986683,-136.081,-136.081)">
        <path d="M733.962,560.164C740.987,553.139 740.987,541.733 733.962,534.708L482.173,282.92C475.148,275.895 463.742,275.895 456.717,282.92L431.261,308.376C424.237,315.4 424.237,326.807 431.261,333.831L683.05,585.62C690.075,592.645 701.481,592.645 708.506,585.62L733.962,560.164ZM439.639,559.207C446.664,552.182 446.664,540.776 439.639,533.751L335.491,429.602C328.466,422.578 317.059,422.578 310.035,429.602L284.579,455.058C277.554,462.083 277.554,473.489 284.579,480.514L388.728,584.663C395.752,591.688 407.159,591.688 414.184,584.663L439.639,559.207ZM584.306,556.624C591.331,549.599 591.331,538.192 584.306,531.168L409.115,355.977C402.091,348.953 390.684,348.953 383.66,355.977L358.204,381.433C351.179,388.458 351.179,399.864 358.204,406.889L533.394,582.079C540.419,589.104 551.825,589.104 558.85,582.079L584.306,556.624ZM298.425,246.543C311.081,259.198 311.081,279.747 298.425,292.402C285.77,305.058 265.221,305.058 252.566,292.402C239.911,279.747 239.911,259.198 252.566,246.543C265.221,233.888 285.77,233.888 298.425,246.543Z" style="fill:white;"/>
    </g>
</svg>
