<?xml version="1.0" encoding="UTF-8" standalone="no"?>
<!DOCTYPE svg PUBLIC "-//W3C//DTD SVG 1.1//EN" "http://www.w3.org/Graphics/SVG/1.1/DTD/svg11.dtd">
<svg width="100%" height="100%" viewBox="0 0 944 944" version="1.1" xmlns="http://www.w3.org/2000/svg" xmlns:xlink="http://www.w3.org/1999/xlink" xml:space="preserve" xmlns:serif="http://www.serif.com/" style="fill-rule:evenodd;clip-rule:evenodd;stroke-linejoin:round;stroke-miterlimit:2;">
    <g transform="matrix(0.707107,0.707107,-0.707107,0.707107,48.0404,-676.037)">
        <path d="M754.971,240.435C773.719,224.654 797.438,216 821.944,216L1440,216C1497.44,216 1544,262.562 1544,320L1544,704C1544,761.438 1497.44,808 1440,808L821.944,808C797.438,808 773.719,799.346 754.971,783.565L526.872,591.565C503.396,571.805 489.845,542.685 489.845,512C489.845,481.315 503.396,452.195 526.872,432.435L754.971,240.435ZM1059.36,727.98C1142.98,727.98 1106.68,665.856 1140.5,646.842C1156.95,637.593 1171.76,678.644 1189.72,715.486C1219.87,777.305 1300.35,753.619 1296.32,692.2C1292.73,637.402 1227.41,646.272 1221.97,610.817C1216.46,574.918 1260.59,573.593 1290.78,600.258C1341.81,645.319 1326.39,688.332 1368.04,715.546C1416.89,747.471 1485.58,691.53 1451.02,632.571C1426.66,591.033 1359.05,602.221 1327.64,526.233C1317.87,502.586 1335.69,473.485 1364.19,489.683C1381.44,499.479 1378.48,520.729 1404.87,535.649C1435.95,553.226 1491.14,518.948 1469.85,470.669C1460.79,450.139 1427.65,438.223 1415.19,431.504C1348.89,395.77 1448.05,296.282 1334.12,296.102C1229.19,295.936 859.62,296.102 859.62,296.102C834.132,296.102 814.978,315.256 814.978,340.744L814.978,683.256C814.978,708.744 834.132,727.898 859.62,727.898C859.62,727.898 1020.59,727.98 1059.36,727.98ZM1085.8,618L1085.8,662C1085.8,674.142 1075.94,684 1063.8,684L878,684C865.858,684 856,674.142 856,662L856,618C856,605.858 865.858,596 878,596L1063.8,596C1075.94,596 1085.8,605.858 1085.8,618ZM1346.44,362L1346.44,406C1346.44,418.142 1336.59,428 1324.44,428L878,428C865.858,428 856,418.142 856,406L856,362C856,349.858 865.858,340 878,340L1324.44,340C1336.59,340 1346.44,349.858 1346.44,362ZM1216,490L1216,534C1216,546.142 1206.14,556 1194,556L878,556C865.858,556 856,546.142 856,534L856,490C856,477.858 865.858,468 878,468L1194,468C1206.14,468 1216,477.858 1216,490ZM752.58,455.42C721.352,424.193 670.648,424.193 639.42,455.42C608.193,486.648 608.193,537.352 639.42,568.58C670.648,599.807 721.352,599.807 752.58,568.58C783.807,537.352 783.807,486.648 752.58,455.42ZM724.29,483.71C739.903,499.324 739.903,524.676 724.29,540.29C708.676,555.903 683.324,555.903 667.71,540.29C652.097,524.676 652.097,499.324 667.71,483.71C683.324,468.097 708.676,468.097 724.29,483.71Z" style="fill:white;"/>
    </g>
</svg>
